<?xml version="1.0" encoding="UTF-8" standalone="no"?>
<svg viewBox="0 0 314.18338 159.85629" xmlns="http://www.w3.org/2000/svg">
<g transform="translate(-137.62993,-162.43404)">
<path d="m149.56317,251.00065 83.2591,64.31832 124.4215-.59868 82.6363-65.11655c-106.89083-12.12111-199.79566-12.3344-290.3169,1.39691z" fill="#ececec" fill-rule="evenodd" stroke="#000" stroke-linejoin="round" stroke-width="3.66343"/>
<path d="m232.82227,315.31897 61.51006-145.91357 62.91144,145.31489-124.4215.59868z" fill="#fff" fill-rule="evenodd" stroke="#000" stroke-linejoin="round" stroke-width="3.66343"/>
<path d="m294.33233,169.4054 .38925,80.89679 .07785,16.17937-.4671-97.07616z" fill="none" stroke="#a5a5a5" stroke-linejoin="bevel" stroke-width="3.66343"/>
<path d="m232.82227,315.31897 61.51006-145.91357 62.91144,145.31489-124.4215.59868z" fill="none" stroke="#000" stroke-linejoin="round" stroke-width="3.66343"/>
<path d="m149.56317,251.00065 83.2591,64.31832 124.4215-.59868 82.6363-65.11655c-109.3581,27.27644-201.6769,17.70592-290.3169,1.39691z" fill="#fff" fill-rule="evenodd" stroke="#000" stroke-linejoin="round" stroke-width="3.66343"/>
<path d="m294.79943,266.48156 .23355,48.53807-.23355-48.53807z" fill="none" stroke="#999" stroke-width="3.66343"/>
<path d="m232.82227,315.31897 61.97716-48.83741 62.44434,48.23873-124.4215.59868z" fill="none" stroke="#8c8c8c" stroke-linejoin="bevel" stroke-width="3.66343"/>
<path d="m149.56317,251.00065 83.2591,64.31832 124.4215-.59868 82.6363-65.11655c-109.3581,27.27644-201.6769,17.70592-290.3169,1.39691z" fill="none" stroke="#000" stroke-linejoin="round" stroke-width="3.66343"/>
</g>
</svg>
